<?xml version="1.0" encoding="UTF-8" standalone="no"?>
<!-- Created with Inkscape (http://www.inkscape.org/) -->

<svg
   width="512"
   height="256"
   viewBox="0 0 135.46665 67.733325"
   version="1.1"
   id="svg1"
   inkscape:export-filename="wordmark_d.png"
   inkscape:export-xdpi="96"
   inkscape:export-ydpi="96"
   inkscape:version="1.3.2 (091e20ef0f, 2023-11-25)"
   sodipodi:docname="lakowordmark_c.svg"
   xmlns:inkscape="http://www.inkscape.org/namespaces/inkscape"
   xmlns:sodipodi="http://sodipodi.sourceforge.net/DTD/sodipodi-0.dtd"
   xmlns="http://www.w3.org/2000/svg"
   xmlns:svg="http://www.w3.org/2000/svg">
  <sodipodi:namedview
     id="namedview1"
     pagecolor="#b3d9ff"
     bordercolor="#000000"
     borderopacity="0.25"
     inkscape:showpageshadow="2"
     inkscape:pageopacity="0.0"
     inkscape:pagecheckerboard="0"
     inkscape:deskcolor="#d1d1d1"
     inkscape:document-units="mm"
     inkscape:export-bgcolor="#b3d9ff00"
     inkscape:zoom="1"
     inkscape:cx="288.5"
     inkscape:cy="73"
     inkscape:window-width="1463"
     inkscape:window-height="738"
     inkscape:window-x="345"
     inkscape:window-y="198"
     inkscape:window-maximized="0"
     inkscape:current-layer="g23" />
  <defs
     id="defs1">
    <rect
       x="715.24512"
       y="162.63232"
       width="1613.7588"
       height="841.08838"
       id="rect2" />
    <rect
       x="893.50488"
       y="289.32654"
       width="1154.4951"
       height="623.04419"
       id="rect1" />
  </defs>
  <g
     inkscape:label="Layer 1"
     inkscape:groupmode="layer"
     id="layer1">
    <g
       id="g4">
      <g
         id="g5">
        <g
           id="g7"
           transform="translate(0,3.6338613)"
           style="fill:none;fill-opacity:1;stroke:#000000;stroke-opacity:1">
          <g
             id="g9"
             transform="translate(-24.703482)">
            <g
               id="g2"
               transform="translate(-8.2667849)">
              <g
                 id="g1"
                 style="stroke:#ffffff;stroke-opacity:1">
                <g
                   id="g3"
                   transform="matrix(0.25847136,0,0,0.25847136,22.153222,-3.8421992)">
                  <g
                     id="g23"
                     transform="matrix(0.94245882,0,0,0.94245882,7.7949125,22.058138)"
                     style="stroke:#001c38;stroke-opacity:1">
                    <path
                       id="path5-7"
                       style="fill:none;fill-opacity:1;stroke:#001c38;stroke-width:11.6108;stroke-linecap:round;stroke-linejoin:round;stroke-dasharray:none;stroke-opacity:1"
                       d="M 190.84616,65.811135 V 12.111947 M 80.087172,65.811134 V 12.111946 m 55.386298,6.391932 c -27.68746,-0.5422 -55.377213,14.68471 -55.386297,47.307257 V 185.01366 l 11.35501,19.66718 c 11.667727,22.38895 10.760587,20.69597 22.709567,0 l 4.97995,-8.62557 4.97996,8.62557 c 11.66815,22.3888 10.76095,20.6961 22.71002,0 l 4.97995,-8.62557 4.97994,8.62557 c 11.66815,22.38864 10.76088,20.69628 22.70958,0 l 11.35501,-19.66718 V 65.811135 c 0,-30.453745 -27.68523,-46.765056 -55.37269,-47.307257 z" />
                    <g
                       id="g6"
                       transform="matrix(0.87766769,0,0,0.87766769,20.402629,-4.0954072)"
                       style="fill:#001c38;fill-opacity:1;stroke:#001c38;stroke-opacity:1">
                      <circle
                         style="fill:#001c38;fill-opacity:1;stroke:#001c38;stroke-width:13.2292;stroke-linecap:round;stroke-linejoin:round;stroke-dasharray:none;stroke-opacity:1"
                         id="path6"
                         cx="108.30572"
                         cy="98.658394"
                         r="7.283793" />
                      <circle
                         style="fill:#001c38;fill-opacity:1;stroke:#001c38;stroke-width:13.2292;stroke-linecap:round;stroke-linejoin:round;stroke-dasharray:none;stroke-opacity:1"
                         id="circle6"
                         cx="153.89839"
                         cy="98.65815"
                         r="7.283793" />
                    </g>
                  </g>
                  <path
                     d="m 746.04609,289.11977 h 47.88 v 326.2 h 145.32 v 43.4 h -193.2 z m 465.15991,369.6 v -44.8 q -2.24,7 -13.16,19.32 -10.64,12.32 -29.4,22.4 -18.48,9.8 -43.68,9.8 -31.92,0 -57.96,-15.12 -25.76,-15.12 -41.16,-42.28 -15.12,-27.44 -15.12,-64.12 0,-36.68 15.12,-63.84 15.4,-27.44 41.16,-42.56 26.04,-15.4 57.96,-15.4 24.92,0 43.12,8.96 18.48,8.96 29.4,20.72 11.2,11.76 13.16,20.16 v -43.12 h 48.16 v 229.88 z m -152.32,-114.8 q 0,24.92 10.92,43.12 10.92,18.2 28.28,28.28 17.64,9.8 37.52,9.8 21.28,0 38.08,-10.08 16.8,-10.08 26.6,-28.28 9.8,-18.48 9.8,-42.84 0,-24.36 -9.8,-42.56 -9.8,-18.48 -26.6,-28.56 -16.8,-10.36 -38.08,-10.36 -19.88,0 -37.52,10.08 -17.36,10.08 -28.28,28.28 -10.92,18.2 -10.92,43.12 z m 430.72,-115.08 h 58.8 l -118.72,109.48 126.56,120.4 h -59.64 l -106.68,-101.92 v 101.92 h -48.72 v -385.28 h 48.72 v 246.4 z m 220.7198,236.6 q -35.56,0 -63.28,-15.96 -27.44,-15.96 -43.12,-43.12 -15.68,-27.44 -15.68,-61.88 0,-34.44 15.68,-62.16 15.68,-27.72 43.12,-43.96 27.72,-16.24 63.28,-16.24 35.28,0 62.44,16.24 27.44,16.24 42.84,43.96 15.4,27.72 15.4,62.16 0,34.44 -15.4,61.88 -15.4,27.16 -42.84,43.12 -27.16,15.96 -62.44,15.96 z m 0,-41.72 q 22.4,0 38.92,-10.36 16.8,-10.36 26.04,-28.28 9.24,-18.2 9.24,-40.88 0,-22.68 -9.24,-40.88 -9.24,-18.2 -26.04,-28.84 -16.52,-10.64 -38.92,-10.64 -22.68,0 -39.48,10.64 -16.8,10.64 -26.32,28.84 -9.24,18.2 -9.24,40.88 0,22.68 9.24,40.88 9.52,17.92 26.32,28.28 16.8,10.36 39.48,10.36 z"
                     id="text2"
                     style="font-size:560px;font-family:'League Spartan';-inkscape-font-specification:'League Spartan';letter-spacing:25px;white-space:pre;fill:#001c38;fill-opacity:1;stroke:#001c38;stroke-width:50;stroke-linecap:round;stroke-linejoin:round;stroke-opacity:1"
                     aria-label="Lako"
                     transform="matrix(0.26458333,0,0,0.26458333,38.936593,7.626868)" />
                </g>
              </g>
            </g>
          </g>
        </g>
      </g>
    </g>
  </g>
</svg>
